<?xml version="1.0" encoding="UTF-8"?>
<!--Generator: Apple Native CoreSVG 341-->
<!DOCTYPE svg
PUBLIC "-//W3C//DTD SVG 1.1//EN"
       "http://www.w3.org/Graphics/SVG/1.1/DTD/svg11.dtd">
<svg version="1.1" xmlns="http://www.w3.org/2000/svg" xmlns:xlink="http://www.w3.org/1999/xlink" viewBox="0 0 123.914 100.954">
 <g>
  <rect height="100.954" opacity="0" width="123.914" x="0" y="0"/>
  <path d="M99.3105 17.7803L99.3105 23.0596L91.2422 23.0596L91.2422 17.8301C91.2422 11.5547 87.7559 8.06836 81.4805 8.06836L17.7803 8.06836C11.5049 8.06836 8.01855 11.5547 8.01855 17.8301L8.01855 60.0645C8.01855 66.3398 11.5049 69.8262 17.7803 69.8262L24.6035 69.8262L24.6035 77.8447L17.7803 77.8447C6.4248 77.8447 0 71.4199 0 60.0645L0 17.7803C0 6.47461 6.4248 0 17.7803 0L82.5762 0C93.1846 0 99.3105 6.47461 99.3105 17.7803Z" fill="black" fill-opacity="0.85"/>
  <path d="M42.3838 100.904L107.18 100.904C117.788 100.904 123.914 94.4297 123.914 83.124L123.914 40.8398C123.914 29.5342 117.788 23.0596 107.18 23.0596L42.3838 23.0596C31.0283 23.0596 24.6035 29.5342 24.6035 40.8398L24.6035 83.124C24.6035 94.4297 31.0283 100.904 42.3838 100.904ZM46.1191 48.6592C48.5098 48.6592 50.4521 46.6172 50.4521 44.3262C50.4521 42.0352 48.5098 39.9932 46.1191 39.9932C43.7285 39.9932 41.7861 42.0352 41.7861 44.3262C41.7861 46.6172 43.7285 48.6592 46.1191 48.6592ZM60.0146 48.6592C62.4053 48.6592 64.3975 46.6172 64.3975 44.3262C64.3975 42.0352 62.4053 39.9932 60.0146 39.9932C57.624 39.9932 55.6816 42.0352 55.6816 44.3262C55.6816 46.6172 57.624 48.6592 60.0146 48.6592ZM73.96 48.6592C76.3506 48.6592 78.293 46.6172 78.293 44.3262C78.293 42.0352 76.3506 39.9932 73.96 39.9932C71.5693 39.9932 69.627 42.0352 69.627 44.3262C69.627 46.6172 71.5693 48.6592 73.96 48.6592ZM42.3838 92.8857C36.1084 92.8857 32.6221 89.3994 32.6221 83.124L32.6221 40.8896C32.6221 34.6143 36.1084 31.1279 42.3838 31.1279L106.084 31.1279C112.359 31.1279 115.846 34.6143 115.846 40.8896L115.846 83.124C115.846 89.3994 112.359 92.8857 106.084 92.8857Z" fill="black" fill-opacity="0.85"/>
 </g>
</svg>
